# xmcd
# 
# Track frame offsets:
#     150
#     18883
#     36528
#     57338
#     68846
#     97086
#     118184
#     133931
#     152406
#     169395
#     184506
#     212304
# 
# Disc length: 3080
# 
# Revision: 0
# Processed by: cddbd v1.5.2PL0 Copyright (c) Steve Scherf et al.
# Submitted via: fre:ac v1.0.17
# 
DISCID=a70c060c
DTITLE=浅川マキ - MAKI LIVE
DYEAR=1971
DGENRE=Blues
TTITLE0=別れ
TTITLE1=赤い橋 
TTITLE2=にぎわい
TTITLE3=ちっちゃな時から 
TTITLE4=朝日樓(朝日のあたる家) 
TTITLE5=かもめ 
TTITLE6=少年
TTITLE7=死春記 
TTITLE8=ピアニストを撃て
TTITLE9=オールド・レインコート
TTITLE10=ガソリン・アレイ 
TTITLE11=さかみち
EXTD=
EXTT0=
EXTT1=
EXTT2=
EXTT3=
EXTT4=
EXTT5=
EXTT6=
EXTT7=
EXTT8=
EXTT9=
EXTT10=
EXTT11=
PLAYORDER=
